<svg id="Layer_1" enable-background="new 0 0 512 512" height="512" viewBox="0 0 512 512" width="512" xmlns="http://www.w3.org/2000/svg"><g><circle cx="128.731" cy="128.731" fill="#fff5f5" r="128.731"/><g><path d="m88.957 185.484c-4.345 0-8.69-1.657-12.005-4.973-6.631-6.631-6.631-17.38 0-24.011l79.548-79.549c6.63-6.631 17.381-6.631 24.011 0 6.631 6.631 6.631 17.38 0 24.011l-79.549 79.549c-3.315 3.316-7.66 4.973-12.005 4.973z" fill="#f4f1f1"/></g><path d="m128.731 257.463c71.096 0 128.731-57.635 128.731-128.731 0-35.548-14.409-67.731-37.704-91.027l-182.053 182.053c23.295 23.296 55.478 37.705 91.026 37.705z" fill="#f4f1f1"/><path d="m88.957 185.484c4.345 0 8.69-1.658 12.005-4.973l79.549-79.549c6.631-6.631 6.63-17.38 0-24.011l-103.56 103.56c3.315 3.316 7.661 4.973 12.006 4.973z" fill="#eceae7"/><g><path d="m481.706 185.378c-40.392-40.392-105.88-40.392-146.272 0l-74.817 74.817 2.796 140.048 143.476 6.223 74.817-74.817c40.392-40.392 40.392-105.88 0-146.271z" fill="#ff4a4a"/><path d="m481.706 185.378-215.007 215.007 140.191 6.081 74.817-74.817c40.391-40.392 40.391-105.88-.001-146.271z" fill="#e20059"/><path d="m185.377 335.435c-40.392 40.392-40.392 105.88 0 146.272 40.392 40.392 105.88 40.392 146.271 0l75.24-75.24-146.27-146.273z" fill="#ffdd54"/><path d="m185.378 481.706c40.392 40.392 105.88 40.392 146.272 0l75.24-75.24-73.136-73.136z" fill="#ffd321"/></g></g></svg>